<svg width="38" height="34" viewBox="0 0 38 34" fill="none" xmlns="http://www.w3.org/2000/svg">
<g id="Code">
<path id="Vector" d="M24.0177 2.49963C24.4192 2.50168 24.8182 2.57304 25.1964 2.71057L25.1954 2.71155C25.5733 2.8489 25.9245 3.04926 26.2335 3.3053L26.3634 3.41858L26.4874 3.53772C26.7294 3.78217 26.9341 4.06076 27.0948 4.36487L27.1719 4.51917L27.2403 4.67737C27.3704 4.99597 27.4534 5.3318 27.4854 5.67444L27.4971 5.84631L27.5001 6.01819C27.4983 6.36218 27.4463 6.70416 27.3448 7.03284L27.2891 7.19592L26.7315 8.72717C27.0375 8.60916 27.3595 8.53406 27.6876 8.50549L27.8594 8.49475C28.2049 8.48178 28.5506 8.51972 28.8848 8.60803L29.0509 8.65686L29.2149 8.7135C29.5879 8.85276 29.9347 9.05476 30.2403 9.31116L36.2403 14.3112L36.3839 14.4381C36.6649 14.6996 36.9014 15.0052 37.0831 15.3434L37.169 15.5153L37.2462 15.691C37.4136 16.1064 37.5 16.5506 37.5001 16.9996C37.5001 17.5128 37.3867 18.0203 37.169 18.485C36.9785 18.8916 36.7117 19.2571 36.3839 19.5621L36.2403 19.6891L30.2403 24.6891C29.8905 24.9826 29.4861 25.205 29.0509 25.3434C28.6109 25.4832 28.1475 25.5347 27.6876 25.4948C27.2273 25.4547 26.7787 25.324 26.3692 25.11C25.9599 24.896 25.5974 24.6025 25.3018 24.2477C25.0062 23.8928 24.783 23.483 24.6466 23.0416C24.5101 22.6003 24.4632 22.1362 24.5069 21.6764L24.5274 21.5045C24.5854 21.1054 24.7114 20.7187 24.9014 20.3619L24.9874 20.2115C25.1944 19.8653 25.4598 19.5567 25.7725 19.3004L28.5323 16.9996L25.7598 14.6891V14.6881C25.4224 14.4089 25.1407 14.0692 24.9288 13.6862L19.2891 29.1949L19.2901 29.1959C19.0446 29.8713 18.5965 30.4546 18.0079 30.8668C17.42 31.2785 16.7197 31.4983 16.002 31.4987L16.003 31.4996L16.0011 31.4987L16.0001 31.4996V31.4987C15.5918 31.4989 15.1871 31.4272 14.8038 31.2867V31.2887C13.9319 30.9716 13.2218 30.3207 12.8292 29.4801C12.4365 28.6395 12.3936 27.6774 12.71 26.8053V26.8043L13.2667 25.2731C12.9612 25.3907 12.64 25.4662 12.3126 25.4948C11.8525 25.5348 11.3885 25.4833 10.9483 25.3434C10.5132 25.205 10.1096 24.9825 9.75984 24.6891L3.75984 19.6891C3.36567 19.3607 3.04883 18.9495 2.83113 18.485C2.64062 18.0783 2.52953 17.6392 2.50496 17.192L2.50007 16.9996L2.50496 16.8082C2.52949 16.3609 2.64058 15.922 2.83113 15.5153L2.91707 15.3434C3.12898 14.949 3.41495 14.5985 3.75984 14.3112L9.75984 9.31116L9.7657 9.3053L9.77254 9.30042C10.4422 8.75172 11.2897 8.47201 12.1505 8.51135L12.3223 8.52307L12.4942 8.54358C13.2899 8.65919 14.022 9.04564 14.5665 9.63733L14.6798 9.76721L14.7872 9.90295C15.2709 10.5456 15.5186 11.3355 15.4884 12.1393L15.4776 12.3112C15.3975 13.2311 14.9568 14.0827 14.252 14.6793L14.2403 14.6891L11.4669 16.9996L14.2276 19.3004L14.3585 19.4137C14.6435 19.6719 14.8828 19.9762 15.0694 20.3131L20.71 4.80432L20.7725 4.64417C20.928 4.27404 21.1464 3.93309 21.418 3.63635L21.5372 3.51233C21.8225 3.22985 22.155 2.99795 22.5196 2.82776L22.6768 2.7594C23.0485 2.60765 23.4439 2.52027 23.8458 2.50256L24.0177 2.49963Z" fill="#82BC4F" stroke="#16181D" stroke-width="4"/>
</g>
</svg>
