<svg width="48" height="48" viewBox="0 0 48 48" fill="none" xmlns="http://www.w3.org/2000/svg">
<path d="M46.5 24C46.5001 26.0768 45.8844 28.107 44.7307 29.8339C43.5769 31.5607 41.937 32.9067 40.0183 33.7015C38.0995 34.4962 35.9882 34.7042 33.9513 34.299C31.9144 33.8938 30.0434 32.8936 28.575 31.425L28.5131 31.3594L17.2725 18.6656C16.2201 17.6256 14.8836 16.92 13.4312 16.6377C11.9788 16.3555 10.4753 16.5091 9.10998 17.0794C7.74467 17.6496 6.57853 18.6109 5.75831 19.8424C4.9381 21.0738 4.50045 22.5204 4.50045 24C4.50045 25.4796 4.9381 26.9262 5.75831 28.1576C6.57853 29.3891 7.74467 30.3504 9.10998 30.9206C10.4753 31.4909 11.9788 31.6445 13.4312 31.3623C14.8836 31.08 16.2201 30.3744 17.2725 29.3344L18.87 27.5306C19.0006 27.3829 19.1591 27.2623 19.3363 27.1758C19.5135 27.0893 19.706 27.0386 19.9028 27.0265C20.0997 27.0144 20.297 27.0412 20.4834 27.1053C20.6699 27.1694 20.8419 27.2697 20.9897 27.4003C21.1374 27.5309 21.258 27.6894 21.3445 27.8666C21.431 28.0438 21.4817 28.2363 21.4938 28.4332C21.5059 28.63 21.4792 28.8273 21.415 29.0138C21.3509 29.2002 21.2506 29.3723 21.12 29.52L19.4906 31.3594L19.4287 31.425C17.9602 32.8933 16.0893 33.8933 14.0526 34.2983C12.0158 34.7034 9.90464 34.4954 7.98608 33.7006C6.06752 32.9059 4.4277 31.5601 3.274 29.8334C2.12029 28.1067 1.5045 26.0767 1.5045 24C1.5045 21.9233 2.12029 19.8933 3.274 18.1666C4.4277 16.4399 6.06752 15.0941 7.98608 14.2994C9.90464 13.5046 12.0158 13.2966 14.0526 13.7017C16.0893 14.1067 17.9602 15.1067 19.4287 16.575L19.4906 16.6406L30.7312 29.3344C31.7836 30.3744 33.1201 31.08 34.5725 31.3623C36.025 31.6445 37.5285 31.4909 38.8938 30.9206C40.2591 30.3504 41.4252 29.3891 42.2454 28.1576C43.0656 26.9262 43.5033 25.4796 43.5033 24C43.5033 22.5204 43.0656 21.0738 42.2454 19.8424C41.4252 18.6109 40.2591 17.6496 38.8938 17.0794C37.5285 16.5091 36.025 16.3555 34.5725 16.6377C33.1201 16.92 31.7836 17.6256 30.7312 18.6656L29.1337 20.4694C28.8699 20.7677 28.4984 20.9491 28.1009 20.9735C27.7034 20.998 27.3124 20.8635 27.0141 20.5997C26.7157 20.3359 26.5343 19.9644 26.5099 19.5668C26.4855 19.1693 26.6199 18.7784 26.8837 18.48L28.5131 16.6406L28.575 16.575C30.0434 15.1064 31.9144 14.1062 33.9513 13.701C35.9882 13.2958 38.0995 13.5038 40.0183 14.2985C41.937 15.0933 43.5769 16.4393 44.7307 18.1661C45.8844 19.893 46.5001 21.9232 46.5 24Z" fill="#82BC4F"/>
</svg>
