<svg width="24" height="24" viewBox="0 0 24 24" fill="none" xmlns="http://www.w3.org/2000/svg">
<g id=" React">
<path id="Vector" d="M12.561 18.9433C12.3877 18.7901 12.2068 18.6363 12.0341 18.4659C11.896 18.5936 11.7666 18.7132 11.6296 18.8322C9.92001 20.306 8.1578 20.9196 7.11319 20.3231C6.10267 19.7523 5.78431 18.066 6.18875 15.9445C6.23189 15.7145 6.2837 15.4846 6.34418 15.2546C6.16275 15.2012 5.99 15.1521 5.81725 15.0944C3.6662 14.3602 2.25008 13.1678 2.25008 11.9749C2.25008 10.8253 3.57144 9.70926 5.63525 8.99373C5.86636 8.91684 6.11018 8.84048 6.36093 8.77213C6.30315 8.55053 6.25751 8.33747 6.21418 8.13136C5.782 5.97783 6.08418 4.25736 7.10337 3.678C8.16532 3.06446 9.92752 3.72072 11.6972 5.26231C11.8007 5.35575 11.9047 5.45827 12.0168 5.56026C12.1808 5.40701 12.3363 5.25376 12.5003 5.1176C14.1759 3.67586 15.8422 3.073 16.8614 3.65237C17.9233 4.24829 18.2347 6.08837 17.7598 8.3631C17.7338 8.50835 17.702 8.64451 17.6651 8.79029C17.8811 8.85009 18.0967 8.91791 18.2954 8.98626C20.4025 9.70178 21.7672 10.8178 21.7499 11.9931C21.7499 13.194 20.2905 14.3783 18.0522 15.111C17.9314 15.1451 17.8107 15.1879 17.6893 15.2215C17.7413 15.3918 17.7754 15.5622 17.8101 15.7325C18.259 17.9389 17.9135 19.7448 16.8689 20.3413C16.5945 20.4939 16.279 20.5717 15.9589 20.5655C15.0015 20.5639 13.7859 19.9814 12.561 18.9433ZM14.2539 15.8169C13.7578 16.5301 13.2126 17.213 12.6217 17.8615C12.7858 18.0217 12.9499 18.1685 13.1139 18.3047C14.5387 19.5141 15.8514 19.9659 16.465 19.6167C16.6524 19.4675 16.8055 19.2851 16.9153 19.0803C17.025 18.8755 17.0892 18.6524 17.104 18.4243C17.2287 17.5789 17.1935 16.72 17 15.8858C16.974 15.7325 16.9423 15.5793 16.8966 15.4175C16.0265 15.6057 15.1436 15.7391 14.2539 15.8169ZM7.0167 16.0897C6.66311 17.9053 6.92195 19.2584 7.5367 19.6081C7.75449 19.6922 7.98964 19.7311 8.22548 19.7218C8.46132 19.7126 8.69208 19.6555 8.9014 19.5547C9.71573 19.2384 10.4573 18.7815 11.0865 18.2086C11.216 18.106 11.3367 17.987 11.4667 17.8679C10.8628 17.2192 10.3032 16.5363 9.79117 15.8233C8.90488 15.7549 8.02477 15.63 7.1571 15.4495C7.10337 15.6722 7.06004 15.8847 7.0167 16.0897ZM12.0433 17.2821C12.4235 16.8645 12.8031 16.4048 13.1833 15.8938C12.8031 15.9109 12.4062 15.9194 12.0087 15.9194C11.6112 15.9194 11.2402 15.9109 10.8687 15.8938C11.257 16.3957 11.6464 16.8645 12.0433 17.2821ZM10.2291 8.9681C9.90095 9.4364 9.58144 9.92926 9.27926 10.4504C8.97709 10.9614 8.70149 11.481 8.45016 11.9989C8.70958 12.51 8.98575 13.0295 9.28793 13.5582C9.5901 14.0692 9.90961 14.5727 10.2378 15.0485C10.8075 15.0827 11.4037 15.1019 12.0081 15.1019C12.6124 15.1019 13.2168 15.0848 13.7957 15.0426C14.1066 14.5743 14.4261 14.0713 14.7288 13.5518C15.0316 13.0322 15.3158 12.5041 15.5666 11.9931C15.3158 11.4906 15.031 10.971 14.7288 10.451C14.4266 9.93086 14.1071 9.4364 13.7876 8.96863C13.2099 8.92592 12.613 8.90029 12.0087 8.90029C11.4043 8.90029 10.808 8.92538 10.2291 8.9681ZM7.37955 14.6667C7.97208 14.7918 8.57181 14.8857 9.17584 14.9481C8.96842 14.6245 8.76158 14.3004 8.56282 13.9597C8.37274 13.6276 8.18265 13.2954 8.00989 12.9633C7.75972 13.5421 7.5523 14.114 7.37955 14.6667ZM15.4539 13.9512C15.2552 14.2918 15.0564 14.6154 14.8582 14.931C15.4713 14.86 16.0797 14.7577 16.6805 14.6245C16.4929 14.0495 16.2739 13.4836 16.0242 12.9291C15.8428 13.2698 15.6527 13.6105 15.4539 13.9512ZM5.90276 9.77707C4.14113 10.3906 3.07918 11.284 3.07918 11.9835C3.11277 12.2085 3.19411 12.4252 3.31854 12.6211C3.44298 12.817 3.60805 12.9883 3.80429 13.1251C4.4783 13.6489 5.25124 14.0532 6.08418 14.3175C6.2396 14.3709 6.40369 14.4115 6.56777 14.4627C6.83305 13.6248 7.15315 12.8026 7.5263 12.0006C7.15243 11.2123 6.83512 10.4021 6.57644 9.57523C6.34341 9.6329 6.11884 9.70018 5.90276 9.77707ZM16.4991 11.9835C16.8823 12.7753 17.2104 13.589 17.4813 14.4195C17.594 14.3853 17.7061 14.3511 17.8095 14.3169C19.7352 13.6868 20.9295 12.7241 20.9358 11.9744C20.9358 11.2759 19.8306 10.3725 18.0256 9.75945C17.8442 9.70018 17.646 9.64038 17.4478 9.58057C17.1862 10.3991 16.8693 11.2016 16.4991 11.9835ZM15.4458 10.0243C15.6446 10.365 15.8347 10.6976 16.0069 11.0298C16.2468 10.487 16.4543 9.9324 16.6285 9.36858C16.042 9.23686 15.4481 9.13454 14.8496 9.06208C15.057 9.37659 15.2557 9.69217 15.4458 10.0243ZM7.38821 9.36164C7.56154 9.90683 7.76839 10.4606 8.00989 11.0308C8.18323 10.6987 8.37274 10.3666 8.56282 10.0345C8.75291 9.70232 8.95109 9.37873 9.15851 9.06315C8.53682 9.13844 7.94981 9.24043 7.38821 9.36164ZM13.0446 5.74128C12.8979 5.8689 12.7511 6.00507 12.6038 6.14176C13.2035 6.78226 13.7546 7.46024 14.2533 8.17087C15.1321 8.24928 16.0038 8.38597 16.8614 8.5799C16.896 8.45228 16.9192 8.32412 16.948 8.1965C17.3525 6.23735 17.1035 4.73794 16.4471 4.36362C16.303 4.28889 16.1396 4.25196 15.9745 4.25683C15.269 4.25362 14.1863 4.76144 13.0446 5.73968V5.74128ZM7.51763 4.38498C6.90461 4.7342 6.66253 6.13108 7.02537 7.97117C7.0687 8.16714 7.11204 8.36257 7.16346 8.56708C8.02224 8.38029 8.89352 8.2465 9.77152 8.1666C10.272 7.45508 10.8261 6.77703 11.4297 6.13749C11.335 6.04351 11.231 5.95861 11.1362 5.87317C9.93446 4.82284 8.77891 4.26858 8.02434 4.26858C7.847 4.26299 7.6715 4.3033 7.51763 4.38498ZM13.1654 8.09879C12.8092 7.62254 12.425 7.16477 12.0144 6.72754C11.6262 7.14457 11.2373 7.60486 10.8589 8.09879C11.2391 8.0817 11.6187 8.07316 12.0075 8.07316C12.3963 8.07316 12.7852 8.0801 13.1654 8.09879ZM10.2811 12.0176C10.273 11.7987 10.3118 11.5804 10.3951 11.3754C10.4784 11.1703 10.6047 10.9824 10.7668 10.8226C10.9288 10.6627 11.1234 10.5339 11.3394 10.4437C11.5554 10.3534 11.7885 10.3035 12.0254 10.2966C12.5034 10.3117 12.9555 10.5013 13.2825 10.8239C13.6095 11.1465 13.7847 11.5758 13.7697 12.0176C13.7851 12.4598 13.6101 12.8896 13.2829 13.2126C12.9557 13.5356 12.5033 13.7253 12.0248 13.7402C11.7878 13.7334 11.5546 13.6834 11.3385 13.593C11.1224 13.5027 10.9278 13.3738 10.7658 13.2137C10.6038 13.0537 10.4775 12.8656 10.3944 12.6604C10.3112 12.4551 10.2727 12.2367 10.2811 12.0176Z" fill="#3996DB"/>
</g>
</svg>
